<?xml version="1.0" encoding="utf-8"?>
<!-- Generator: Adobe Illustrator 27.5.0, SVG Export Plug-In . SVG Version: 6.00 Build 0)  -->
<svg version="1.1" id="Layer_1" xmlns="http://www.w3.org/2000/svg" xmlns:xlink="http://www.w3.org/1999/xlink" x="0px" y="0px"
	 viewBox="0 0 100 100" style="enable-background:new 0 0 100 100;" xml:space="preserve">
<style type="text/css">
	.st0{fill:none;stroke:#000000;stroke-width:3;stroke-miterlimit:10;}
	.st1{stroke:#000000;stroke-width:2;stroke-miterlimit:10;}
</style>
<circle class="st0" cx="50" cy="50" r="37.5"/>
<path class="st1" d="M50.97,50.99L50.97,50.99c-0.65,0-1.17-0.52-1.17-1.17V22.33c0-0.65,0.52-1.17,1.17-1.17h0
	c0.65,0,1.17,0.52,1.17,1.17v27.49C52.14,50.46,51.61,50.99,50.97,50.99z"/>
<path class="st1" d="M51.83,49.04L51.83,49.04c0.44,0.48,0.41,1.22-0.07,1.65L34.43,66.62c-0.48,0.44-1.22,0.41-1.65-0.07l0,0
	c-0.44-0.48-0.41-1.22,0.07-1.65l17.33-15.93C50.65,48.54,51.39,48.57,51.83,49.04z"/>
</svg>
