<?xml version="1.0" encoding="utf-8"?>
<!-- Generator: Adobe Illustrator 27.5.0, SVG Export Plug-In . SVG Version: 6.00 Build 0)  -->
<svg version="1.1" id="Layer_1" xmlns="http://www.w3.org/2000/svg" xmlns:xlink="http://www.w3.org/1999/xlink" x="0px" y="0px"
	 viewBox="0 0 100 100" style="enable-background:new 0 0 100 100;" xml:space="preserve">
<style type="text/css">
	.st0{fill:#FFFFFF;}
</style>
<path class="st0" d="M98.84,41.03l-10.72-6.19l3.54-13.21L79.09,9.06l-13.55,3.63L58.89,1.16H41.11l-6.46,11.19L22.64,9.12
	L10.08,21.69l3.29,12.29L1.16,41.03V58.8l12.16,7.02l-3.3,12.32L22.58,90.7l11.98-3.21l6.55,11.35h17.77l6.75-11.7l13.51,3.62
	L91.72,78.2l-3.55-13.24l10.67-6.16V41.03z M50,72.42c-12.38,0-22.42-10.04-22.42-22.42S37.62,27.58,50,27.58S72.42,37.62,72.42,50
	S62.38,72.42,50,72.42z"/>
</svg>
