<?xml version="1.0" encoding="utf-8"?>
<!-- Generator: Adobe Illustrator 27.5.0, SVG Export Plug-In . SVG Version: 6.00 Build 0)  -->
<svg version="1.1" id="Layer_1" xmlns="http://www.w3.org/2000/svg" xmlns:xlink="http://www.w3.org/1999/xlink" x="0px" y="0px"
	 viewBox="0 0 100 100" style="enable-background:new 0 0 100 100;" xml:space="preserve">
<style type="text/css">
	.st0{fill:none;stroke:#000000;stroke-width:2;stroke-miterlimit:10;}
	.st1{font-family:'ISOCPEUR';}
	.st2{font-size:27.406px;}
</style>
<path class="st0" d="M84.48,69.07H15.52c-3.3,0-5.98-2.68-5.98-5.98V36.91c0-3.3,2.68-5.98,5.98-5.98h68.97
	c3.3,0,5.98,2.68,5.98,5.98v26.19C90.46,66.4,87.79,69.07,84.48,69.07z"/>
<g>
	<polyline class="st0" points="33.97,35.6 19.65,35.6 16.41,38.83 16.41,50 	"/>
	<polyline class="st0" points="33.97,64.4 19.65,64.4 16.41,61.17 16.41,50 	"/>
</g>
<g>
	<polyline class="st0" points="66.03,35.6 80.35,35.6 83.59,38.83 83.59,50 	"/>
	<polyline class="st0" points="66.03,64.4 80.35,64.4 83.59,61.17 83.59,50 	"/>
</g>
<circle class="st0" cx="50" cy="50" r="16.03"/>
<text transform="matrix(1 0 0 1 43.8173 58.0046)" class="st1 st2">$</text>
</svg>
