<?xml version="1.0" encoding="utf-8"?>
<!-- Generator: Adobe Illustrator 27.5.0, SVG Export Plug-In . SVG Version: 6.00 Build 0)  -->
<svg version="1.1" id="Layer_1" xmlns="http://www.w3.org/2000/svg" xmlns:xlink="http://www.w3.org/1999/xlink" x="0px" y="0px"
	 viewBox="0 0 100 100" style="enable-background:new 0 0 100 100;" xml:space="preserve">
<style type="text/css">
	.st0{fill:none;stroke:#000000;stroke-width:3;stroke-miterlimit:10;}
	.st1{fill:#FFFFFF;stroke:#000000;stroke-width:3;stroke-miterlimit:10;}
</style>
<circle class="st0" cx="50" cy="50" r="37.5"/>
<g>
	<path class="st1" d="M42.27,62.44L30.85,50.17c-0.39-0.41-0.36-1.06,0.05-1.45l0,0c0.41-0.39,1.06-0.36,1.45,0.05l11.43,12.27
		c0.39,0.41,0.36,1.06-0.05,1.45h0C43.31,62.87,42.66,62.85,42.27,62.44z"/>
	<path class="st1" d="M42.57,60.92l25.13-23.41c0.41-0.39,1.06-0.36,1.45,0.05l0,0c0.39,0.41,0.36,1.06-0.05,1.45L43.97,62.42
		c-0.41,0.39-1.06,0.36-1.45-0.05v0C42.14,61.95,42.16,61.31,42.57,60.92z"/>
</g>
</svg>
